<svg width="18" height="18" viewBox="0 0 18 18" fill="none" xmlns="http://www.w3.org/2000/svg">
<path d="M11.9447 6.17776L7.19994 10.9226L4.61514 8.34496L3.59994 9.36016L7.19994 12.9602L12.9599 7.20016L11.9447 6.17776ZM8.63994 2.16016C4.66554 2.16016 1.43994 5.38576 1.43994 9.36016C1.43994 13.3346 4.66554 16.5602 8.63994 16.5602C12.6143 16.5602 15.8399 13.3346 15.8399 9.36016C15.8399 5.38576 12.6143 2.16016 8.63994 2.16016ZM8.63994 15.1202C5.45754 15.1202 2.87994 12.5426 2.87994 9.36016C2.87994 6.17776 5.45754 3.60016 8.63994 3.60016C11.8223 3.60016 14.3999 6.17776 14.3999 9.36016C14.3999 12.5426 11.8223 15.1202 8.63994 15.1202Z" fill="#10BD40"/>
</svg>
