<svg width="30" height="23" viewBox="0 0 30 23" fill="none" xmlns="http://www.w3.org/2000/svg">
<path d="M6.31579 0H1.57895C0.710526 0 0 0.710526 0 1.57895V20.5263C0 21.3947 0.710526 22.1053 1.57895 22.1053H6.31579C7.18421 22.1053 7.89474 21.3947 7.89474 20.5263V1.57895C7.89474 0.710526 7.18421 0 6.31579 0ZM28.4211 0H23.6842C22.8158 0 22.1053 0.710526 22.1053 1.57895V20.5263C22.1053 21.3947 22.8158 22.1053 23.6842 22.1053H28.4211C29.2895 22.1053 30 21.3947 30 20.5263V1.57895C30 0.710526 29.2895 0 28.4211 0ZM17.3684 0H12.6316C11.7632 0 11.0526 0.710526 11.0526 1.57895V20.5263C11.0526 21.3947 11.7632 22.1053 12.6316 22.1053H17.3684C18.2368 22.1053 18.9474 21.3947 18.9474 20.5263V1.57895C18.9474 0.710526 18.2368 0 17.3684 0Z" fill="#E9E9E9"/>
</svg>
