<svg width="25" height="25" viewBox="0 0 25 25" fill="none" xmlns="http://www.w3.org/2000/svg">
<path d="M12.5 0C5.58571 0 0 5.58571 0 12.5C0 18.0071 3.59464 22.6964 8.55357 24.375C9.17857 24.4929 9.41429 24.1018 9.41429 23.7893V21.6804C5.9375 22.4214 5.19464 20 5.19464 20C4.60893 18.5536 3.78929 18.1643 3.78929 18.1643C2.65714 17.3821 3.86786 17.4214 3.86786 17.4214C5.11786 17.5 5.78036 18.7107 5.78036 18.7107C6.91429 20.625 8.71071 20.0786 9.41429 19.7643C9.53214 18.9446 9.84286 18.3982 10.1946 18.0857C7.42143 17.7732 4.49286 16.6804 4.49286 11.9143C4.49286 10.5464 4.96071 9.45357 5.78036 8.55536C5.66429 8.24286 5.23393 6.95357 5.89821 5.23393C5.89821 5.23393 6.95179 4.88214 9.33571 6.52321C10.3541 6.24417 11.4048 6.10008 12.4607 6.09464C13.5143 6.09464 14.6089 6.25 15.5857 6.52321C17.9696 4.92143 19.0232 5.23393 19.0232 5.23393C19.6875 6.95357 19.2571 8.24286 19.1411 8.55536C19.9625 9.4125 20.4304 10.5464 20.4304 11.9125C20.4304 16.7179 17.5 17.7732 14.7268 18.0857C15.1554 18.4768 15.5857 19.2179 15.5857 20.3893V23.8286C15.5857 24.1804 15.8196 24.5696 16.4446 24.4143C21.4071 22.6946 25 18.0071 25 12.5C25 5.58571 19.4143 0 12.5 0Z" fill="white"/>
</svg>
