<svg width="17" height="17" viewBox="0 0 17 17" fill="none" xmlns="http://www.w3.org/2000/svg">
<path d="M9.2085 2.125C5.68808 2.125 2.8335 4.97958 2.8335 8.5H0.708496L3.46391 11.2554L3.5135 11.3546L6.37516 8.5H4.25016C4.25016 5.75875 6.46725 3.54167 9.2085 3.54167C11.9497 3.54167 14.1668 5.75875 14.1668 8.5C14.1668 11.2412 11.9497 13.4583 9.2085 13.4583C7.84141 13.4583 6.60183 12.8987 5.70933 11.9992L4.7035 13.005C5.85808 14.1596 7.44475 14.875 9.2085 14.875C12.7289 14.875 15.5835 12.0204 15.5835 8.5C15.5835 4.97958 12.7289 2.125 9.2085 2.125ZM8.50016 5.66667V9.20833L11.5318 11.0075L12.0418 10.1504L9.56266 8.67708V5.66667H8.50016Z" fill="#0038FF"/>
</svg>
