<svg width="21" height="23" viewBox="0 0 21 23" fill="none" xmlns="http://www.w3.org/2000/svg">
<path d="M0.0706132 4.04227V8.08489H3.80534H7.54007V6.86515V5.64542H9.28775C11.874 5.64542 12.6984 5.77776 13.2763 6.28654C13.7201 6.66995 13.8472 7.03242 13.8472 7.94521C13.8472 8.60728 13.8261 8.71902 13.6499 9.07415C13.2975 9.78511 12.8537 10.0219 11.5569 10.1895C11.0566 10.2593 9.52748 10.2729 5.4471 10.2659L0 10.245V16.6227V23H3.73508H7.46981V19.4805V15.961H10.0701C13.5019 15.961 14.6367 15.8426 16.1305 15.3198C19.3018 14.2111 21 11.6254 21 7.89667C21 5.63145 20.38 3.92389 19.0691 2.59276C18.0897 1.58918 17.0114 0.968662 15.5667 0.564646C13.8543 0.0977726 12.1843 0 5.4471 0H0.0706132V4.04227Z" fill="#E9E9E9"/>
</svg>
