<svg width="30" height="30" viewBox="0 0 30 30" fill="none" xmlns="http://www.w3.org/2000/svg">
<path d="M-1.41125e-06 13.8571C-1.45954e-06 13.3049 0.447714 12.8571 1 12.8571L12.8571 12.8571L12.8571 1C12.8571 0.447717 13.3049 1.45954e-06 13.8571 1.41125e-06L16.1429 1.21143e-06C16.6951 1.16315e-06 17.1429 0.447717 17.1429 1L17.1429 12.8571L29 12.8571C29.5523 12.8571 30 13.3049 30 13.8571L30 16.1429C30 16.6951 29.5523 17.1429 29 17.1429L17.1429 17.1429L17.1429 29C17.1429 29.5523 16.6951 30 16.1429 30L13.8571 30C13.3049 30 12.8571 29.5523 12.8571 29L12.8571 17.1429L0.999999 17.1429C0.447715 17.1429 -1.16315e-06 16.6951 -1.21143e-06 16.1429L-1.41125e-06 13.8571Z" fill="#6F6F6F"/>
</svg>
