<svg width="15" height="15" viewBox="0 0 15 15" fill="none" xmlns="http://www.w3.org/2000/svg">
<path d="M-6.61915e-07 7.42857C-7.10198e-07 6.87629 0.447715 6.42857 1 6.42857L6.42857 6.42857L6.42857 1C6.42857 0.447716 6.87629 7.10198e-07 7.42857 6.61915e-07L7.57143 6.49426e-07C8.12371 6.01144e-07 8.57143 0.447716 8.57143 1L8.57143 6.42857L14 6.42857C14.5523 6.42857 15 6.87629 15 7.42857L15 7.57143C15 8.12371 14.5523 8.57143 14 8.57143L8.57143 8.57143L8.57143 14C8.57143 14.5523 8.12371 15 7.57143 15L7.42857 15C6.87629 15 6.42857 14.5523 6.42857 14L6.42857 8.57143L0.999999 8.57143C0.447714 8.57143 -6.01144e-07 8.12371 -6.49426e-07 7.57143L-6.61915e-07 7.42857Z" fill="#A3A3A3"/>
</svg>
