<svg width="16" height="16" viewBox="0 0 16 16" fill="none" xmlns="http://www.w3.org/2000/svg">
<path d="M4.60336 0.160156H2.25136C0.812956 0.160156 0.160156 0.812956 0.160156 2.25136V4.60336C0.160156 6.04016 0.812956 6.69456 2.25136 6.69456H4.60336C6.04016 6.69456 6.69456 6.04176 6.69456 4.60336V2.25136C6.69296 0.812956 6.04016 0.160156 4.60336 0.160156ZM13.749 0.160156H11.397C9.96016 0.160156 9.30576 0.812956 9.30576 2.25136V4.60336C9.30576 6.04016 9.95856 6.69456 11.397 6.69456H13.749C15.1858 6.69456 15.8402 6.04176 15.8402 4.60336V2.25136C15.8402 0.812956 15.1874 0.160156 13.749 0.160156ZM4.60336 9.30736H2.25136C0.812956 9.30736 0.160156 9.96016 0.160156 11.397V13.749C0.160156 15.1874 0.812956 15.8402 2.25136 15.8402H4.60336C6.04016 15.8402 6.69456 15.1874 6.69456 13.749V11.397C6.69296 9.96016 6.04016 9.30736 4.60336 9.30736ZM13.749 9.30736H11.397C9.96016 9.30736 9.30576 9.96016 9.30576 11.3986V13.7506C9.30576 15.1874 9.95856 15.8418 11.397 15.8418H13.749C15.1858 15.8418 15.8402 15.189 15.8402 13.7506V11.3986C15.8402 9.96016 15.1874 9.30736 13.749 9.30736Z" fill="#5A5A5A"/>
</svg>
